<?xml version='1.0' encoding='utf-8'?>
<svg xmlns="http://www.w3.org/2000/svg" enable-background="new 0 0 1030 1690.937" version="1.1" viewBox="0 0 1030 1690.937">
<g transform="translate(1.4949 -862.17)">
	<path d="m471.9 1797.1l66.774-22.248c-138.17-115.31-155.69-168.48-215.83-323.75-177.38 153.24-139.51 360.15-151.65 588.52 47.199-110.58 149.22-228.9 237.05-298.24l-36.829-44.685c-34.845 16.333-87.531 55.584-122.38 93.787-9.8064-74.671 14.033-128.37 56.236-186.55 42.626 58.729 95.803 142.1 166.63 193.17z"/>
	<path d="m385.23 2258.8c265.62 648.37 267.41-202.72 131.54 32.04-10.742-5.7346-16.133-15.957-21.072-37.082l-25.465-2.894c10.563 33.019 20.657 65.214 62.806 83.991 50.134-253.47 116.77 509.62-127.41-110.03l-20.402 33.979z"/>
	<path d="m589.49 1825.8c183.65 138.24 47.138 314-132.97 137.44-123.75 4.8267-192.46 216.64-119.35 297.96 30.078-49.044 81.079-127.59 125.58-159.97-18.765-21.357-42.761-29.849-53.387-27.688-13.286 21.817-38.873 49.837-19.153 107.34l-25.932 37.575c-34.664-79.801-1.7669-140.12 21.317-188.35 68.929 2.5898 62.831-9.8871 133.13 90.976-109.17 56.961-139.84 152.93-186.76 244.72-182.58-228.92-12.118-480.12 153.81-470.69 70.738 165.26 271.84 88.316 40.059-57.437l63.654-11.873z"/>
	<path d="m477.87 907.64c17.227 14.003 36.507 30.894 43.038 50.245-72.165-5.965-162.14-6.8355-231.5 11.92l48.439 21.364c-232.03 26.64-328.04 227.83-309.38 293.75l32.235-18.44c-13.28 37.644 48.832 245.38 48.972 336.65 0.1101 71.898-21.331 130.18-58.588 178.48 145.15-117.86 137.72-249.64 91.924-433.75-14.984-116.76 76.029-159.08 161.66-191.92-21.716-4.6652-60.25-7.7963-87.142-6.6053 46.654-51.904 136.01-74.25 193.88-77.217-95.581 83.034-147.04 171.24-180.12 254.27 68.598-67.664 118.13-146.46 231.24-179.41-30.178 41.864-45.907 86.932-58.554 132.69l-36.26-57.074c-34.838 52.082-69.678 99.958-104.52 148.24 27.809-15.519 53.249-27.718 90.376-56.283 16.318 20.54 18.577 47.092 21.519 73.364 27.145-27.95 54.625-55.569 74.121-91.167 18.006 38.021 30.262 99.28 68.135 119.24-0.5329-24.346 0.3224-53.418 13.503-64.024 58.892 68.965 83.866 130.27 80.674 221.26-41.236-97.304-96.632-118.12-146.74-167.49-40.199 44.015-52.674 103.51-64.505 156.39l31.874 4.4895c1.8605-69 17.298-83.492 30.412-107.51 122.9 132.71 72.51 125.22-35.452 205.64l33.629 38.669c60.566-32.812 121.18-66.367 217.48-84.889 6.967 69.263-48.116 137.02-112.69 150.53-115.76 19.887-278.54 121.82-269.75 126.71 64.056-37.852 133.74-45.098 201.62-54.098 160.58-21.292 185.86-40.336 260.94-171.19 9.7638 8.8876 14.644 64.54 24.443 93.971 83.562-263.76-200.91-419.29-221.35-474.95-13.819-37.63 18.501-81.339 49.351-97.773-10.236 18.095-20.058 23.495-22.912 36.054 119.07-56.972 133.63-23.146 208.29 48.938-39.3 0.1594-52.525-0.7972-71.162 31.152 51.449 15.183 71.89 33.911 91.202 80.812-62.253 42.843-31.192 68.51 17.047 94.178l38.548-14.862 0.6021-20.814c-48.756-11.491-22.019-53.233-17.666-73.295 38.004-3.714 50.203-10.614 66.724 22.173l-0.6881 51.191c74.764-17.413 64.775-70.382 80.038-116.4l-45.962 33.371c7.079-98.89-54.408-157.9-110.47-239.41l-21.519 69.614c-18.592-64.027-54.399-94.016-95.657-118.38l3.7499 40.784c-44.869-22.466-95.717-46.998-126.71-44.586 19.305 9.1063 28.77 0.9952 60.876 44.242-61.119-23.181-114.86 20.695-137.73 38.359 20.502-48.237 56.549-77.834 57.487-122.78 18.052-7.2815 87.996-11.912 121.58-7.689-10.015 8.837-23.274 19.583-26.903 32.803 106.16 2.1115 158.98 38.672 244.17 122.85-38.42-93.763-93.711-173.98-215.33-239.6l13.675 32.562c-20.68-4.0457-103.22-16.268-120.03-11.852-41.834-24.075-83.699-48.425-124.18-53.514zm405.04 326.84c24.131 30.113 35.486 50.4 24.46 97.859-30.713-35.1-35.54-48.946-24.46-97.859z"/>
</g>
</svg>